<svg width="30" height="30" viewBox="0 0 30 30" fill="none" xmlns="http://www.w3.org/2000/svg">
<path d="M14.9999 0.599854C7.04685 0.599854 0.599854 7.04685 0.599854 14.9999C0.599854 22.9529 7.04685 29.3999 14.9999 29.3999C22.9529 29.3999 29.3999 22.9529 29.3999 14.9999C29.3999 7.04685 22.9529 0.599854 14.9999 0.599854ZM11.4749 20.9684H8.55885V11.5844H11.4749V20.9684ZM9.99885 10.4324C9.07785 10.4324 8.48235 9.77985 8.48235 8.97285C8.48235 8.14935 9.09585 7.51635 10.0364 7.51635C10.9769 7.51635 11.5529 8.14935 11.5709 8.97285C11.5709 9.77985 10.9769 10.4324 9.99885 10.4324ZM22.1249 20.9684H19.2089V15.7679C19.2089 14.5574 18.7859 13.7354 17.7314 13.7354C16.9259 13.7354 16.4474 14.2919 16.2359 14.8274C16.1579 15.0179 16.1384 15.2879 16.1384 15.5564V20.9669H13.2209V14.5769C13.2209 13.4054 13.1834 12.4259 13.1444 11.5829H15.6779L15.8114 12.8864H15.8699C16.2539 12.2744 17.1944 11.3714 18.7679 11.3714C20.6864 11.3714 22.1249 12.6569 22.1249 15.4199V20.9684Z" fill="#333E47"/>
</svg>
