<svg width="17" height="17" viewBox="0 0 17 17" fill="none" xmlns="http://www.w3.org/2000/svg">
<path d="M15.406 2.65625H1.59351C1.29966 2.65625 1.06226 2.89365 1.06226 3.1875V13.8125C1.06226 14.1063 1.29966 14.3438 1.59351 14.3438H15.406C15.6999 14.3438 15.9373 14.1063 15.9373 13.8125V3.1875C15.9373 2.89365 15.6999 2.65625 15.406 2.65625ZM14.7419 4.4957V13.1484H2.25757V4.4957L1.79937 4.13877L2.45181 3.30039L3.16235 3.85322H13.8388L14.5494 3.30039L15.2018 4.13877L14.7419 4.4957ZM13.8388 3.85156L8.49976 8.00195L3.16069 3.85156L2.45015 3.29873L1.79771 4.13711L2.25591 4.49404L7.927 8.90342C8.09009 9.03012 8.29074 9.0989 8.49727 9.0989C8.70379 9.0989 8.90444 9.03012 9.06753 8.90342L14.7419 4.4957L15.2001 4.13877L14.5477 3.30039L13.8388 3.85156Z" fill="url(#paint0_linear)"/>
<defs>
<linearGradient id="paint0_linear" x1="8.49976" y1="2.65625" x2="8.49976" y2="14.3438" gradientUnits="userSpaceOnUse">
<stop stop-color="#75B1A8"/>
<stop offset="1" stop-color="#75B1A8"/>
</linearGradient>
</defs>
</svg>
