<svg width="29" height="29" viewBox="0 0 29 29" fill="none" xmlns="http://www.w3.org/2000/svg">
<path d="M14.5001 0.580078C6.81218 0.580078 0.580078 6.81218 0.580078 14.5001C0.580078 22.188 6.81218 28.4201 14.5001 28.4201C22.188 28.4201 28.4201 22.188 28.4201 14.5001C28.4201 6.81218 22.188 0.580078 14.5001 0.580078ZM20.1623 11.9829C20.1681 12.1018 20.1696 12.2207 20.1696 12.3367C20.1696 15.9617 17.4131 20.1391 12.37 20.1391C10.8799 20.1416 9.42068 19.7136 8.16793 18.9066C8.38108 18.9327 8.60003 18.9429 8.82188 18.9429C10.1066 18.9429 11.2883 18.5064 12.2265 17.7698C11.6548 17.7586 11.1008 17.5693 10.6418 17.2283C10.1828 16.8873 9.84159 16.4116 9.66578 15.8674C10.0764 15.9455 10.4993 15.9291 10.9026 15.8196C10.2821 15.6941 9.72406 15.3579 9.32315 14.8679C8.92224 14.3779 8.70313 13.7644 8.70298 13.1313V13.0979C9.07273 13.3024 9.49613 13.4271 9.94563 13.4416C9.36389 13.0543 8.95207 12.4594 8.79439 11.7786C8.63672 11.0978 8.7451 10.3824 9.09738 9.77888C9.78606 10.6257 10.6449 11.3184 11.6183 11.8122C12.5917 12.306 13.658 12.5899 14.748 12.6455C14.6094 12.0573 14.6691 11.4397 14.9177 10.8889C15.1663 10.338 15.5899 9.88471 16.1227 9.59946C16.6555 9.31421 17.2677 9.21298 17.8639 9.3115C18.4602 9.41003 19.0072 9.70279 19.4199 10.1443C20.0335 10.0229 20.6219 9.79781 21.1599 9.47873C20.9554 10.114 20.5273 10.6535 19.955 10.9969C20.4985 10.9314 21.0292 10.7853 21.5297 10.5633C21.1621 11.1142 20.699 11.5949 20.1623 11.9829Z" fill="#333E47"/>
</svg>
